<?xml version="1.0" encoding="utf-8"?>
<!-- Generator: Adobe Illustrator 16.0.0, SVG Export Plug-In . SVG Version: 6.00 Build 0)  -->
<!DOCTYPE svg PUBLIC "-//W3C//DTD SVG 1.1//EN" "http://www.w3.org/Graphics/SVG/1.1/DTD/svg11.dtd">
<svg version="1.1" id="Layer_1" xmlns="http://www.w3.org/2000/svg" xmlns:xlink="http://www.w3.org/1999/xlink" x="0px" y="0px"
	 width="83px" height="80px" viewBox="0 0 83 80" enable-background="new 0 0 83 80" xml:space="preserve">
<g>
	<g>
		<path fill="#FBA4B2" d="M82.997,28.786c-0.001-0.017-0.002-0.033-0.004-0.051c0-0.004,0-0.008-0.001-0.012
			c0-0.011-0.002-0.021-0.004-0.031c-0.001-0.011-0.003-0.021-0.005-0.03c-0.001-0.007-0.002-0.015-0.003-0.021
			c-0.002-0.01-0.003-0.02-0.005-0.029c-0.002-0.009-0.003-0.014-0.003-0.018c-0.005-0.021-0.011-0.042-0.017-0.062
			c-0.003-0.012-0.005-0.022-0.009-0.033c-0.002-0.007-0.003-0.014-0.005-0.021c-0.001-0.004-0.002-0.008-0.003-0.011
			c-0.004-0.011-0.008-0.021-0.012-0.03c-0.006-0.018-0.012-0.034-0.019-0.051l-0.012-0.032c-0.01-0.022-0.021-0.044-0.032-0.065
			c-0.008-0.018-0.016-0.036-0.024-0.053c-0.006-0.01-0.013-0.019-0.018-0.028c-0.008-0.014-0.014-0.023-0.021-0.034
			c-0.023-0.038-0.05-0.075-0.077-0.11c-0.005-0.008-0.011-0.015-0.016-0.021c-0.031-0.038-0.063-0.075-0.099-0.109
			c-0.003-0.003-0.006-0.006-0.01-0.009c-0.007-0.007-0.015-0.013-0.021-0.02c-0.032-0.03-0.067-0.06-0.103-0.087
			c-0.011-0.008-0.021-0.016-0.032-0.022c-0.031-0.022-0.064-0.044-0.1-0.064c-0.014-0.008-0.026-0.017-0.041-0.024
			C82.298,27.703,31.258,0.16,31.258,0.16c-0.469-0.253-1.045-0.202-1.461,0.128c-0.417,0.331-0.593,0.877-0.445,1.385l5.203,18.026
			l-8.959,8.198c-0.006,0.005-0.011,0.011-0.017,0.017c-0.019,0.018-0.037,0.036-0.055,0.056c-0.012,0.013-0.024,0.025-0.036,0.04
			c-0.018,0.021-0.034,0.041-0.051,0.063c-0.01,0.014-0.021,0.026-0.029,0.04c-0.018,0.024-0.033,0.05-0.049,0.075
			c-0.007,0.012-0.015,0.023-0.021,0.035c-0.017,0.029-0.031,0.061-0.047,0.092c-0.003,0.009-0.008,0.017-0.011,0.024
			c-0.017,0.037-0.03,0.074-0.044,0.113c-0.001,0.003-0.002,0.006-0.004,0.01c-0.013,0.042-0.024,0.085-0.034,0.129
			c-0.009,0.044-0.017,0.088-0.021,0.133c-0.005,0.046-0.008,0.091-0.008,0.138c0,0.046,0.003,0.091,0.008,0.136
			c0.005,0.046,0.012,0.091,0.021,0.134c0.01,0.044,0.021,0.087,0.035,0.129c0.001,0.004,0.002,0.008,0.004,0.011
			c0.013,0.038,0.026,0.076,0.043,0.112c0.003,0.009,0.008,0.017,0.012,0.024c0.015,0.031,0.029,0.063,0.047,0.093
			c0.007,0.012,0.014,0.022,0.021,0.034c0.016,0.025,0.031,0.051,0.049,0.075c0.01,0.014,0.02,0.026,0.029,0.04
			c0.017,0.021,0.033,0.043,0.051,0.063c0.012,0.014,0.024,0.026,0.037,0.04c0.018,0.019,0.035,0.037,0.055,0.055
			c0.005,0.006,0.01,0.012,0.016,0.018l8.96,8.197l-5.204,18.026c-0.147,0.509,0.028,1.054,0.445,1.385
			c0.24,0.19,0.533,0.288,0.828,0.288c0.217,0,0.435-0.053,0.633-0.16l51.04-27.542c0.013-0.008,0.018-0.011,0.022-0.014
			c0.016-0.009,0.031-0.019,0.047-0.027c0.019-0.012,0.037-0.022,0.055-0.034c0.009-0.006,0.017-0.013,0.025-0.019
			c0.01-0.008,0.021-0.015,0.03-0.022c0.023-0.018,0.048-0.037,0.07-0.057c0.016-0.014,0.032-0.027,0.047-0.042
			c0.005-0.004,0.007-0.007,0.009-0.009c0.011-0.011,0.021-0.021,0.03-0.031c0.019-0.02,0.036-0.038,0.054-0.059
			c0.003-0.004,0.007-0.007,0.01-0.011c0.004-0.004,0.007-0.009,0.01-0.014c0.006-0.006,0.011-0.013,0.016-0.02
			c0.014-0.017,0.026-0.034,0.039-0.052c0.009-0.013,0.017-0.025,0.025-0.037c0.009-0.015,0.018-0.027,0.026-0.041
			c0.007-0.012,0.01-0.018,0.013-0.023c0.008-0.014,0.017-0.028,0.023-0.043c0.011-0.021,0.021-0.042,0.031-0.063
			c0.007-0.017,0.016-0.033,0.021-0.051c0.009-0.02,0.016-0.039,0.022-0.059l0.003-0.009c0.004-0.011,0.008-0.021,0.012-0.031
			c0.002-0.006,0.003-0.013,0.005-0.019s0.004-0.013,0.006-0.019c0.002-0.008,0.003-0.016,0.006-0.023
			c0.001-0.003,0.001-0.006,0.002-0.01c0.005-0.019,0.011-0.036,0.015-0.056c0.001-0.004,0.001-0.009,0.002-0.013
			c0.003-0.015,0.004-0.024,0.006-0.034c0.001-0.008,0.002-0.015,0.003-0.021c0.002-0.011,0.004-0.021,0.005-0.03
			c0.002-0.011,0.004-0.021,0.004-0.032c0.001-0.003,0.001-0.008,0.001-0.012c0.002-0.017,0.003-0.033,0.004-0.051
			C82.998,28.912,83,28.888,83,28.865C83,28.832,82.998,28.809,82.997,28.786z M29.88,30.172h6.173c0.731,0,1.324-0.587,1.324-1.312
			c0-0.726-0.593-1.313-1.324-1.313H29.88l6.579-6.02l31.402,6.02H41.48c-0.732,0-1.325,0.587-1.325,1.312s0.593,1.313,1.325,1.313
			h26.381l-31.402,6.02L29.88,30.172z M32.768,53.758l4.334-15.018l36.44-6.985L32.768,53.758z M37.102,18.98L32.768,3.961
			l40.774,22.004L37.102,18.98z M3.865,62.352c-0.272-0.785-0.503-1.596-0.684-2.408c-0.159-0.707-0.867-1.153-1.58-0.997
			c-0.714,0.156-1.165,0.856-1.007,1.564c0.203,0.908,0.461,1.815,0.766,2.694c0.188,0.543,0.702,0.885,1.253,0.885
			c0.143,0,0.287-0.022,0.43-0.071C3.735,63.784,4.104,63.038,3.865,62.352z M2.648,54.971c0.005-0.84,0.052-1.687,0.14-2.516
			c0.076-0.721-0.451-1.365-1.179-1.441c-0.726-0.077-1.379,0.447-1.455,1.167C0.057,53.097,0.005,54.032,0,54.958
			c-0.004,0.725,0.586,1.314,1.324,1.318C2.053,56.277,2.646,55.694,2.648,54.971z M2.164,48.384
			c0.133,0.042,0.269,0.063,0.401,0.063c0.562,0,1.083-0.356,1.262-0.915c0.257-0.799,0.557-1.592,0.893-2.357
			c0.291-0.664-0.016-1.438-0.687-1.726c-0.671-0.289-1.451,0.016-1.743,0.681c-0.371,0.846-0.703,1.724-0.987,2.607
			C1.081,47.427,1.467,48.165,2.164,48.384z M8.63,36.949c-0.554-0.474-1.39-0.413-1.868,0.135c-0.61,0.7-1.191,1.438-1.728,2.195
			c-0.42,0.593-0.275,1.411,0.323,1.827c0.232,0.161,0.497,0.238,0.76,0.238c0.417,0,0.828-0.195,1.086-0.559
			c0.485-0.685,1.011-1.354,1.563-1.986C9.244,38.25,9.184,37.422,8.63,36.949z M13.144,31.676
			c-0.792,0.488-1.567,1.021-2.307,1.587c-0.579,0.442-0.686,1.267-0.239,1.84c0.262,0.335,0.653,0.511,1.05,0.511
			c0.282,0,0.567-0.09,0.809-0.273c0.669-0.512,1.371-0.995,2.087-1.438c0.621-0.383,0.812-1.191,0.425-1.807
			S13.765,31.292,13.144,31.676z M20.044,76.836c-0.816-0.188-1.633-0.426-2.425-0.705c-0.689-0.243-1.446,0.112-1.691,0.796
			c-0.246,0.683,0.113,1.433,0.803,1.676c0.886,0.313,1.799,0.578,2.712,0.789c0.102,0.023,0.202,0.035,0.303,0.035
			c0.602,0,1.146-0.409,1.288-1.015C21.199,77.707,20.757,77.001,20.044,76.836z M13.087,73.934
			c-0.709-0.448-1.399-0.94-2.053-1.463c-0.569-0.455-1.402-0.368-1.862,0.196c-0.46,0.563-0.371,1.389,0.197,1.845
			c0.729,0.584,1.501,1.133,2.293,1.634c0.221,0.14,0.467,0.206,0.711,0.206c0.438,0,0.865-0.215,1.118-0.606
			C13.885,75.134,13.703,74.324,13.087,73.934z M6.031,66.867c-0.386-0.615-1.202-0.805-1.823-0.422
			c-0.622,0.383-0.812,1.191-0.426,1.808c0.495,0.788,1.041,1.559,1.623,2.288c0.261,0.328,0.648,0.499,1.04,0.499
			c0.287,0,0.577-0.092,0.82-0.282c0.574-0.448,0.672-1.273,0.219-1.842C6.964,68.261,6.475,67.573,6.031,66.867z M27.561,77.238
			c-0.782,0.092-1.581,0.139-2.374,0.139c-0.731,0-1.324,0.587-1.324,1.312S24.455,80,25.187,80c0.897,0,1.801-0.054,2.687-0.157
			c0.727-0.086,1.245-0.738,1.159-1.458C28.945,77.666,28.287,77.152,27.561,77.238z M34.673,74.99
			c-0.73,0.395-1.493,0.747-2.268,1.046c-0.682,0.265-1.019,1.025-0.752,1.7c0.205,0.518,0.705,0.835,1.234,0.835
			c0.16,0,0.323-0.029,0.481-0.091c0.878-0.34,1.743-0.739,2.572-1.187c0.642-0.347,0.879-1.144,0.528-1.78
			C36.119,74.877,35.315,74.643,34.673,74.99z M40.479,70.317c-0.534,0.636-1.113,1.243-1.724,1.808
			c-0.535,0.494-0.563,1.324-0.064,1.854c0.261,0.276,0.614,0.416,0.969,0.416c0.323,0,0.647-0.116,0.903-0.353
			c0.69-0.639,1.347-1.327,1.952-2.047c0.468-0.557,0.392-1.384-0.171-1.847C41.782,69.685,40.947,69.76,40.479,70.317z
			 M45.771,62.986c-0.695-0.225-1.442,0.152-1.669,0.841c-0.259,0.785-0.57,1.563-0.927,2.31c-0.313,0.654-0.031,1.437,0.63,1.747
			c0.183,0.086,0.376,0.126,0.565,0.126c0.496,0,0.972-0.277,1.198-0.751c0.405-0.847,0.759-1.729,1.052-2.619
			C46.848,63.951,46.468,63.21,45.771,62.986z M20.865,28.399c-0.903,0.23-1.807,0.51-2.683,0.831
			c-0.687,0.251-1.037,1.006-0.783,1.686c0.198,0.529,0.704,0.857,1.242,0.857c0.153,0,0.308-0.026,0.46-0.082
			c0.792-0.29,1.608-0.543,2.425-0.752c0.708-0.181,1.134-0.896,0.952-1.598C22.296,28.64,21.574,28.217,20.865,28.399z"/>
	</g>
</g>
</svg>
