<?xml version="1.0" encoding="utf-8"?>
<!-- Generator: Adobe Illustrator 16.0.0, SVG Export Plug-In . SVG Version: 6.00 Build 0)  -->
<!DOCTYPE svg PUBLIC "-//W3C//DTD SVG 1.1//EN" "http://www.w3.org/Graphics/SVG/1.1/DTD/svg11.dtd">
<svg version="1.1" id="Layer_1" xmlns="http://www.w3.org/2000/svg" xmlns:xlink="http://www.w3.org/1999/xlink" x="0px" y="0px"
	 width="65px" height="80px" viewBox="0 0 65 80" enable-background="new 0 0 65 80" xml:space="preserve">
<path fill="#FBA4B2" d="M63.71,16.527c0.712,0,1.29-0.572,1.29-1.277V6.296C65,2.824,62.094,0,58.522,0H6.431
	C2.825,0,0,2.766,0,6.296v57.099c0,3.565,2.885,6.466,6.431,6.466h12.656v8.86c0,0.443,0.231,0.854,0.612,1.087
	c0.38,0.233,0.855,0.255,1.255,0.057l6.302-3.122l6.301,3.122c0.182,0.09,0.38,0.135,0.577,0.135c0.236,0,0.471-0.063,0.678-0.191
	c0.38-0.232,0.611-0.644,0.611-1.087v-8.862l23.099-0.04c3.572,0,6.478-2.882,6.478-6.424v-8.955c0-0.705-0.578-1.277-1.29-1.277
	h-9.027V16.527H63.71z M62.42,6.296v7.676h-7.738V6.381c0-2.101,1.723-3.816,3.842-3.825C60.673,2.557,62.42,4.234,62.42,6.296z
	 M33.526,57.999c-0.18,0.096-0.335,0.232-0.451,0.398c-1.618,1.333-3.652,2.066-5.759,2.066c-2.238,0-4.386-0.821-6.049-2.311
	c-1.893-1.698-2.979-4.117-2.979-6.636c0-4.933,4.05-8.945,9.028-8.945s9.027,4.013,9.027,8.945
	C36.343,53.969,35.319,56.311,33.526,57.999z M32.844,76.653l-5.012-2.483c-0.363-0.18-0.791-0.18-1.154,0l-5.012,2.483V61.563
	c1.714,0.949,3.654,1.457,5.649,1.457c1.945,0,3.843-0.484,5.528-1.393V76.653z M35.423,59.739c2.231-2.16,3.5-5.124,3.5-8.222
	c0-6.342-5.207-11.501-11.607-11.501s-11.607,5.159-11.607,11.501c0,3.034,1.225,5.954,3.379,8.105v7.682H6.431
	c-2.124,0-3.852-1.754-3.852-3.91V6.296c0-2.098,1.692-3.74,3.852-3.74h46.963c-0.81,1.067-1.291,2.393-1.291,3.825v57.014
	c0,1.454,0.489,2.798,1.311,3.877l-17.991,0.031V59.739z M62.42,55.718v7.677c0,2.096-1.783,3.865-3.897,3.868
	c-2.118-0.01-3.841-1.744-3.841-3.868v-7.677H62.42z"/>
</svg>
