<?xml version="1.0" encoding="utf-8"?>
<!-- Generator: Adobe Illustrator 16.0.0, SVG Export Plug-In . SVG Version: 6.00 Build 0)  -->
<!DOCTYPE svg PUBLIC "-//W3C//DTD SVG 1.1//EN" "http://www.w3.org/Graphics/SVG/1.1/DTD/svg11.dtd">
<svg version="1.1" id="Layer_1" xmlns="http://www.w3.org/2000/svg" xmlns:xlink="http://www.w3.org/1999/xlink" x="0px" y="0px"
	 width="56.028px" height="80px" viewBox="0 0 56.028 80" enable-background="new 0 0 56.028 80" xml:space="preserve">
<path fill="#FBA4B2" d="M55.541,71.729c0.65-1.575,0.65-3.31,0-4.885l-2.114-5.129c0.04-0.085,0.078-0.172,0.114-0.259
	c0.563-1.365,0.563-2.868,0-4.233c-0.609-1.479-1.8-2.581-3.242-3.095l-5.825-14.13h4.049c0.175,0.495,0.644,0.852,1.196,0.852
	c0.703,0,1.271-0.572,1.271-1.277v-1.702c0-0.705-0.568-1.276-1.271-1.276c-0.553,0-1.021,0.355-1.196,0.852H43.42l-8.849-21.464
	l0.369-3.522c0.109-1.04-0.203-2.027-0.878-2.781s-1.62-1.169-2.661-1.169h-2.117V1.276C29.285,0.571,28.716,0,28.014,0
	s-1.271,0.571-1.271,1.276V8.51h-2.118c-1.042,0-1.986,0.415-2.661,1.169c-0.675,0.754-0.987,1.741-0.877,2.781l0.369,3.521
	l-8.849,21.465H7.506c-0.175-0.496-0.644-0.852-1.197-0.852c-0.702,0-1.271,0.571-1.271,1.276v1.703
	c0,0.705,0.569,1.276,1.271,1.276c0.553,0,1.022-0.356,1.197-0.852h4.049l-5.826,14.13c-1.441,0.514-2.632,1.616-3.242,3.095
	c-0.619,1.501-0.528,3.124,0.116,4.488l-2.116,5.133c-0.65,1.575-0.65,3.31,0,4.885c0.484,1.175,1.287,2.155,2.313,2.849
	l-1.508,3.656c-0.269,0.65,0.039,1.397,0.688,1.668C2.139,79.969,2.304,80,2.466,80c0.498,0,0.971-0.298,1.174-0.789l6.094-14.782
	c1.299-0.557,2.362-1.603,2.927-2.972c0.572-1.388,0.537-2.879,0.02-4.175l7.125-17.283h6.937v2.128
	c0,0.705,0.569,1.276,1.271,1.276c0.702,0,1.271-0.571,1.271-1.276v-2.128h6.938l2.15,5.216c0.202,0.492,0.676,0.789,1.174,0.789
	c0.162,0,0.327-0.031,0.486-0.098c0.648-0.27,0.956-1.017,0.688-1.668l-2.476-6.004c-0.002-0.005-0.004-0.01-0.006-0.015
	l-4.782-11.601l0.557-5.318l7.385,17.909c0.002,0.006,0.004,0.011,0.007,0.017l6.05,14.674c-0.377,0.07-0.748,0.18-1.107,0.329
	c-0.445,0.186-0.852,0.423-1.219,0.702l-2.463-5.976c-0.27-0.651-1.012-0.961-1.66-0.69c-0.648,0.27-0.957,1.016-0.688,1.668
	l3.029,7.349c-0.518,1.296-0.553,2.787,0.02,4.176c0.564,1.368,1.628,2.415,2.927,2.971l4.149,10.063
	c0.001,0.004,1.945,4.72,1.945,4.72C52.591,79.703,53.064,80,53.562,80c0.162,0,0.328-0.031,0.486-0.098
	c0.648-0.27,0.957-1.017,0.688-1.668l-1.507-3.656C54.255,73.885,55.057,72.904,55.541,71.729z M23.854,11.387
	c0.187-0.209,0.461-0.323,0.772-0.323h6.776c0.312,0,0.586,0.115,0.772,0.323s0.272,0.494,0.239,0.806l-0.402,3.841
	c-0.001,0.009-0.996,9.498-0.996,9.498h-6.001l-0.996-9.49c0-0.008-0.403-3.849-0.403-3.849
	C23.582,11.881,23.667,11.595,23.854,11.387z M22.572,26.619l-4.783,11.603c-0.001,0.003-0.003,0.006-0.004,0.01L10.9,54.931
	c-0.367-0.278-0.774-0.516-1.219-0.701c-0.36-0.149-0.73-0.259-1.107-0.329l6.05-14.674c0.002-0.006,0.005-0.012,0.007-0.018
	L22.014,21.3L22.572,26.619z M2.835,70.753c-0.39-0.945-0.39-1.986,0-2.932l1.618-3.925c0.313,0.217,0.651,0.403,1.015,0.555
	c0.439,0.183,0.892,0.306,1.355,0.369l-3.015,7.312C3.391,71.755,3.056,71.289,2.835,70.753z M10.313,60.48
	c-0.343,0.833-1.029,1.446-1.855,1.705c-0.024,0.006-0.049,0.012-0.073,0.021c-0.26,0.073-0.533,0.114-0.813,0.114
	c-0.389,0-0.77-0.077-1.133-0.229c-1.51-0.628-2.23-2.374-1.604-3.892c0.461-1.117,1.536-1.84,2.741-1.84
	c0.388,0,0.77,0.077,1.133,0.228C10.219,57.217,10.939,58.963,10.313,60.48z M29.285,37.446v-2.128c0-0.705-0.568-1.276-1.271-1.276
	s-1.271,0.571-1.271,1.276v2.128h-5.885l3.86-9.362h6.59l3.86,9.362H29.285z M47.319,56.588c0.364-0.15,0.745-0.228,1.134-0.228
	c1.203,0,2.279,0.723,2.74,1.84c0.303,0.735,0.303,1.545,0,2.28s-0.873,1.308-1.604,1.612c-0.364,0.151-0.745,0.228-1.133,0.228
	c-0.28,0-0.552-0.041-0.813-0.114c-0.024-0.008-0.05-0.015-0.074-0.021c-0.825-0.259-1.511-0.872-1.854-1.705
	C45.089,58.963,45.808,57.217,47.319,56.588z M53.193,70.753c-0.221,0.536-0.556,1.002-0.973,1.379l-3.016-7.312
	c0.464-0.063,0.918-0.187,1.355-0.369c0.361-0.15,0.7-0.337,1.016-0.554l1.617,3.924C53.583,68.767,53.583,69.808,53.193,70.753z"/>
</svg>
