<?xml version="1.0" encoding="utf-8"?>
<!-- Generator: Adobe Illustrator 16.0.0, SVG Export Plug-In . SVG Version: 6.00 Build 0)  -->
<!DOCTYPE svg PUBLIC "-//W3C//DTD SVG 1.1//EN" "http://www.w3.org/Graphics/SVG/1.1/DTD/svg11.dtd">
<svg version="1.1" id="Layer_1" xmlns="http://www.w3.org/2000/svg" xmlns:xlink="http://www.w3.org/1999/xlink" x="0px" y="0px"
	 width="80px" height="80px" viewBox="0 0 80 80" enable-background="new 0 0 80 80" xml:space="preserve">
<g>
	<g>
		<g>
			<path fill="#FBA4B2" d="M78.724,72.34H1.276C0.571,72.34,0,72.912,0,73.616c0,0.706,0.571,1.277,1.276,1.277h77.447
				c0.705,0,1.276-0.571,1.276-1.277C80,72.912,79.429,72.34,78.724,72.34z M78.724,77.446H1.276C0.571,77.446,0,78.018,0,78.723
				S0.571,80,1.276,80h77.447C79.429,80,80,79.428,80,78.723S79.429,77.446,78.724,77.446z M78.724,5.105h-4.256V3.829
				C74.468,1.718,72.75,0,70.638,0c-2.111,0-3.829,1.718-3.829,3.829v1.276H54.043V3.829c0-2.111-1.719-3.829-3.83-3.829
				c-2.112,0-3.83,1.718-3.83,3.829v1.276H33.617V3.829c0-2.111-1.719-3.829-3.83-3.829s-3.83,1.718-3.83,3.829v1.276H13.191V3.829
				C13.191,1.718,11.474,0,9.361,0c-2.111,0-3.83,1.718-3.83,3.829v1.276H1.276C0.571,5.105,0,5.678,0,6.383v62.128
				c0,0.704,0.571,1.276,1.276,1.276h77.447c0.705,0,1.276-0.572,1.276-1.276V6.383C80,5.678,79.429,5.105,78.724,5.105z
				 M69.361,3.829c0-0.704,0.572-1.276,1.276-1.276s1.277,0.572,1.277,1.276v5.106c0,0.704-0.573,1.277-1.277,1.277
				s-1.276-0.573-1.276-1.277V3.829z M48.936,3.829c0-0.704,0.573-1.276,1.277-1.276s1.276,0.572,1.276,1.276v5.106
				c0,0.704-0.572,1.277-1.276,1.277s-1.277-0.573-1.277-1.277V3.829z M28.511,3.829c0-0.704,0.572-1.276,1.276-1.276
				s1.276,0.572,1.276,1.276v5.106c0,0.704-0.572,1.277-1.276,1.277s-1.276-0.573-1.276-1.277V3.829z M8.085,3.829
				c0-0.704,0.572-1.276,1.276-1.276s1.276,0.572,1.276,1.276v5.106c0,0.704-0.572,1.277-1.276,1.277S8.085,9.64,8.085,8.936V3.829z
				 M77.446,67.233H2.553V23.37h74.894V67.233z M77.446,20.816H2.553V7.659h2.979v1.276c0,2.112,1.719,3.83,3.83,3.83
				c2.112,0,3.83-1.718,3.83-3.83V7.659h12.766v1.276c0,2.112,1.719,3.83,3.83,3.83s3.83-1.718,3.83-3.83V7.659h12.766v1.276
				c0,2.112,1.718,3.83,3.83,3.83c2.111,0,3.83-1.718,3.83-3.83V7.659h12.766v1.276c0,2.112,1.718,3.83,3.829,3.83
				c2.112,0,3.83-1.718,3.83-3.83V7.659h2.979V20.816z M65.021,41.157h5.105c0.706,0,1.277-0.571,1.277-1.276
				s-0.571-1.277-1.277-1.277h-5.105c-0.705,0-1.277,0.572-1.277,1.277S64.316,41.157,65.021,41.157z M51.234,41.157h5.105
				c0.705,0,1.277-0.571,1.277-1.276s-0.572-1.277-1.277-1.277h-5.105c-0.706,0-1.277,0.572-1.277,1.277
				S50.528,41.157,51.234,41.157z M37.446,41.157h5.106c0.705,0,1.277-0.571,1.277-1.276s-0.572-1.277-1.277-1.277h-5.106
				c-0.705,0-1.276,0.572-1.276,1.277S36.741,41.157,37.446,41.157z M23.659,41.157h5.106c0.705,0,1.276-0.571,1.276-1.276
				s-0.571-1.277-1.276-1.277h-5.106c-0.705,0-1.276,0.572-1.276,1.277S22.954,41.157,23.659,41.157z M9.872,41.157h5.106
				c0.705,0,1.276-0.571,1.276-1.276s-0.571-1.277-1.276-1.277H9.872c-0.705,0-1.276,0.572-1.276,1.277S9.167,41.157,9.872,41.157z
				 M51.234,50.349h5.105c0.705,0,1.277-0.571,1.277-1.276s-0.572-1.277-1.277-1.277h-5.105c-0.706,0-1.277,0.572-1.277,1.277
				S50.528,50.349,51.234,50.349z M37.446,50.349h5.106c0.705,0,1.277-0.571,1.277-1.276s-0.572-1.277-1.277-1.277h-5.106
				c-0.705,0-1.276,0.572-1.276,1.277S36.741,50.349,37.446,50.349z M23.659,50.349h5.106c0.705,0,1.276-0.571,1.276-1.276
				s-0.571-1.277-1.276-1.277h-5.106c-0.705,0-1.276,0.572-1.276,1.277S22.954,50.349,23.659,50.349z M9.872,50.349h5.106
				c0.705,0,1.276-0.571,1.276-1.276s-0.571-1.277-1.276-1.277H9.872c-0.705,0-1.276,0.572-1.276,1.277S9.167,50.349,9.872,50.349z
				 M51.234,59.54h5.105c0.705,0,1.277-0.571,1.277-1.276s-0.572-1.276-1.277-1.276h-5.105c-0.706,0-1.277,0.571-1.277,1.276
				S50.528,59.54,51.234,59.54z M65.021,50.349h5.105c0.706,0,1.277-0.571,1.277-1.276s-0.571-1.277-1.277-1.277h-5.105
				c-0.705,0-1.277,0.572-1.277,1.277S64.316,50.349,65.021,50.349z M65.021,59.54h5.105c0.706,0,1.277-0.571,1.277-1.276
				s-0.571-1.276-1.277-1.276h-5.105c-0.705,0-1.277,0.571-1.277,1.276S64.316,59.54,65.021,59.54z M37.446,59.54h5.106
				c0.705,0,1.277-0.571,1.277-1.276s-0.572-1.276-1.277-1.276h-5.106c-0.705,0-1.276,0.571-1.276,1.276S36.741,59.54,37.446,59.54z
				 M23.659,59.54h5.106c0.705,0,1.276-0.571,1.276-1.276s-0.571-1.276-1.276-1.276h-5.106c-0.705,0-1.276,0.571-1.276,1.276
				S22.954,59.54,23.659,59.54z M9.872,59.54h5.106c0.705,0,1.276-0.571,1.276-1.276s-0.571-1.276-1.276-1.276H9.872
				c-0.705,0-1.276,0.571-1.276,1.276S9.167,59.54,9.872,59.54z M65.021,31.966h5.105c0.706,0,1.277-0.572,1.277-1.276
				c0-0.705-0.571-1.277-1.277-1.277h-5.105c-0.705,0-1.277,0.572-1.277,1.277C63.744,31.394,64.316,31.966,65.021,31.966z
				 M51.234,31.966h5.105c0.705,0,1.277-0.572,1.277-1.276c0-0.705-0.572-1.277-1.277-1.277h-5.105
				c-0.706,0-1.277,0.572-1.277,1.277C49.957,31.394,50.528,31.966,51.234,31.966z M37.446,31.966h5.106
				c0.705,0,1.277-0.572,1.277-1.276c0-0.705-0.572-1.277-1.277-1.277h-5.106c-0.705,0-1.276,0.572-1.276,1.277
				C36.17,31.394,36.741,31.966,37.446,31.966z M23.659,31.966h5.106c0.705,0,1.276-0.572,1.276-1.276
				c0-0.705-0.571-1.277-1.276-1.277h-5.106c-0.705,0-1.276,0.572-1.276,1.277C22.383,31.394,22.954,31.966,23.659,31.966z
				 M9.872,31.966h5.106c0.705,0,1.276-0.572,1.276-1.276c0-0.705-0.571-1.277-1.276-1.277H9.872c-0.705,0-1.276,0.572-1.276,1.277
				C8.596,31.394,9.167,31.966,9.872,31.966z"/>
		</g>
	</g>
</g>
</svg>
